<svg width="250" height="250" viewBox="0 0 250 250" fill="none" xmlns="http://www.w3.org/2000/svg">
<path d="M127.869 175.542C127.869 177.321 126.422 178.763 124.638 178.763C122.854 178.763 121.407 177.321 121.407 175.542V143.573C122.43 143.636 123.462 143.667 124.5 143.667C125.632 143.667 126.756 143.63 127.869 143.556V175.542Z" fill="#FFB547"/>
<path fill-rule="evenodd" clip-rule="evenodd" d="M233.103 20.5865C236.89 19.8405 240.204 19.5061 242.847 19.7373C245.408 19.9614 247.993 20.7857 249.276 23.0195C250.558 25.2532 249.96 27.89 248.856 30.2018C247.715 32.5882 245.745 35.2632 243.179 38.1354C241.179 40.3742 238.747 42.8081 235.925 45.4098C236.133 46.2643 236.242 47.1573 236.238 48.0762C236.213 54.1812 231.224 59.1098 225.094 59.0846C223.535 59.0782 222.052 58.7509 220.708 58.1672C220.413 58.3971 220.116 58.6279 219.817 58.8592C205.837 69.68 187.593 82.1761 166.638 95.1538C166.046 117.902 147.36 136.161 124.396 136.161C116.939 136.161 109.933 134.235 103.851 130.855C95.8255 135.028 88.0472 138.916 80.6074 142.484L69.106 153.948C67.8443 155.206 65.7985 155.206 64.5368 153.948C63.5155 152.93 63.3208 151.4 63.9529 150.187C57.8492 152.899 52.0697 155.336 46.6778 157.47C34.6879 162.216 24.5035 165.515 16.8964 167.014C13.1097 167.76 9.79601 168.094 7.15266 167.862C4.5918 167.638 2.00692 166.814 0.724358 164.581C-0.558179 162.347 0.0396598 159.71 1.14456 157.398C2.28507 155.012 4.25467 152.337 6.82065 149.464C10.7718 145.042 16.4064 139.857 23.4098 134.125C22.5576 132.72 22.07 131.072 22.0773 129.31C22.0985 124.202 26.2736 120.078 31.4025 120.099C36.5313 120.121 40.672 124.279 40.6508 129.387C40.6296 134.495 36.4545 138.619 31.3256 138.598C28.856 138.588 26.6159 137.618 24.9588 136.045C20.496 139.627 16.7915 142.865 13.958 145.679C11.478 148.143 9.61844 150.327 8.50878 152.167C7.44646 153.929 6.85627 155.737 7.66601 157.148C8.47586 158.558 10.3401 158.969 12.4034 158.95C14.5584 158.931 17.3918 158.442 20.7811 157.563C27.5763 155.8 36.8595 152.395 47.952 147.654C70.1511 138.166 99.749 123.257 131.492 105.178C163.235 87.0991 191.147 69.2539 210.616 55.0103C212.041 53.9676 213.422 52.9432 214.756 51.9394C214.289 50.7103 214.035 49.377 214.041 47.9845C214.066 41.8796 219.056 36.9511 225.186 36.9763C227.311 36.9851 229.294 37.5886 230.977 38.6273C231.682 37.969 232.347 37.3304 232.97 36.7121C235.45 34.2489 237.309 32.0643 238.419 30.2241C239.481 28.4624 240.071 26.654 239.261 25.2435C238.452 23.8332 236.588 23.4225 234.525 23.4409C232.369 23.4602 229.536 23.9489 226.147 24.8284C219.351 26.5918 210.068 29.9958 198.976 34.7368C197.864 35.2118 196.734 35.7005 195.587 36.2023C195.024 35.4633 194.45 34.7337 193.866 34.0136C197.133 32.6266 200.289 31.3307 203.322 30.1301C215.312 25.3843 225.496 22.0852 233.103 20.5865ZM164.995 96.1692C163.43 97.1339 161.85 98.1009 160.256 99.0701C157.748 116.53 142.684 129.951 124.475 129.951C119.603 129.951 114.957 128.99 110.716 127.248C108.988 128.166 107.271 129.07 105.564 129.962C111.194 132.901 117.6 134.564 124.396 134.564C146.133 134.564 163.884 117.56 164.995 96.1692ZM158.366 100.216C158.097 100.379 157.828 100.541 157.558 100.704C155.057 106.037 149.613 109.735 143.3 109.735C142.973 109.735 142.65 109.725 142.328 109.705C140.29 110.885 138.235 112.065 136.164 113.245C131.223 116.059 126.326 118.793 121.49 121.44C124.233 122.3 127.153 122.765 130.182 122.765C144.003 122.765 155.552 113.108 158.366 100.216Z" fill="#FFB547"/>
<path d="M153.288 155.629C153.884 157.066 153.2 158.712 151.759 159.307C150.319 159.902 148.667 159.219 148.07 157.783L141.042 140.871C142.828 140.246 144.568 139.522 146.255 138.707L153.288 155.629Z" fill="#FFB547"/>
<path d="M103.092 138.873C104.707 139.638 106.371 140.32 108.076 140.912L101.036 157.853C100.467 159.224 98.8911 159.874 97.5166 159.307C96.142 158.739 95.4893 157.168 96.0586 155.798L103.092 138.873Z" fill="#FFB547"/>
<path d="M184.739 149.394C186.001 150.651 186.001 152.691 184.739 153.948C183.477 155.206 181.432 155.206 180.17 153.948L157.444 131.295C159.063 129.876 160.59 128.355 162.013 126.741L184.739 149.394Z" fill="#FFB547"/>
<path d="M77.4165 110.491C78.0473 112.27 78.7768 114.003 79.5984 115.683L62.8503 122.598C61.4096 123.193 59.7579 122.511 59.1611 121.075C58.5643 119.639 59.2487 117.992 60.6893 117.397L77.4165 110.491Z" fill="#FFB547"/>
<path d="M188.657 117.566C190.031 118.134 190.684 119.705 190.115 121.075C189.545 122.445 187.969 123.096 186.595 122.528L169.505 115.472C170.281 113.865 170.974 112.211 171.576 110.514L188.657 117.566Z" fill="#FFB547"/>
<path d="M124.396 51.9202C141.26 51.9202 155.816 61.7671 162.594 76.0071C162.143 76.2969 161.69 76.5876 161.235 76.8786C154.753 63.0773 140.695 53.5171 124.396 53.5171C101.944 53.5171 83.742 71.6601 83.742 94.0406C83.742 102.699 86.467 110.723 91.1081 117.308C90.6278 117.556 90.149 117.803 89.6718 118.048C84.9235 111.237 82.1399 102.963 82.1399 94.0406C82.1399 70.7781 101.059 51.9202 124.396 51.9202Z" fill="#FFB547"/>
<path d="M124.475 57.8871C139.199 57.8871 151.866 66.6624 157.501 79.2519C156.854 79.6607 156.203 80.0706 155.549 80.4814C150.668 71.5426 141.139 65.4727 130.182 65.4727C114.255 65.4728 101.344 78.2982 101.344 94.1189C101.344 99.779 102.997 105.056 105.849 109.499C102.258 111.447 98.725 113.332 95.2625 115.147C90.9007 109.193 88.3263 101.856 88.3263 93.9191C88.3263 74.0192 104.51 57.8871 124.475 57.8871Z" fill="#FFB547"/>
<path d="M74.67 90.8202C74.6075 91.84 74.5757 92.8681 74.5757 93.9035C74.5757 95.0319 74.6136 96.1514 74.6877 97.261H42.873C41.0887 97.2609 39.642 95.8192 39.642 94.0406C39.642 92.262 41.0887 90.8202 42.873 90.8202H74.67Z" fill="#FFB547"/>
<path d="M206.403 90.8202C208.187 90.8202 209.634 92.262 209.634 94.0406C209.634 95.8191 208.187 97.2609 206.403 97.261H174.313C174.387 96.1514 174.425 95.0319 174.425 93.9035C174.425 92.8681 174.393 91.84 174.331 90.8202H206.403Z" fill="#FFB547"/>
<path d="M143.3 78.5028C147.04 78.5028 150.475 79.8002 153.174 81.9667C145.196 86.9368 136.716 92.0316 127.874 97.1472C127.681 96.1675 127.579 95.155 127.579 94.1189C127.579 85.4944 134.617 78.5028 143.3 78.5028Z" fill="#FFB547"/>
<path d="M59.1611 67.0067C59.7305 65.6365 61.3064 64.9858 62.681 65.5534L79.4312 72.4691C78.6598 74.0779 77.9725 75.7345 77.375 77.4331L60.6191 70.515C59.2446 69.9474 58.5918 68.3768 59.1611 67.0067Z" fill="#FFB547"/>
<path d="M180.17 34.133C181.432 32.8754 183.477 32.8753 184.739 34.133C186.001 35.3906 186.001 37.4296 184.739 38.6872L162.141 61.212C160.724 59.5923 159.204 58.0645 157.59 56.6397L180.17 34.133Z" fill="#FFB547"/>
<path d="M64.5368 34.133C65.7985 32.8754 67.8443 32.8753 69.106 34.133L91.557 56.5116C89.9376 57.9303 88.4109 59.4516 86.9876 61.0658L64.5368 38.6872C63.2751 37.4296 63.2752 35.3906 64.5368 34.133Z" fill="#FFB547"/>
<path d="M148.239 30.2277C148.809 28.8576 150.385 28.2071 151.759 28.7746C153.134 29.3422 153.787 30.9128 153.217 32.2829L146.233 49.0895C144.623 48.3122 142.964 47.6185 141.264 47.0143L148.239 30.2277Z" fill="#FFB547"/>
<path d="M97.5166 28.7746C98.9573 28.1798 100.609 28.8617 101.206 30.2977L108.099 46.8871C106.311 47.5068 104.569 48.225 102.88 49.0352L95.9886 32.4519C95.3918 31.0159 96.0759 29.3695 97.5166 28.7746Z" fill="#FFB547"/>
<path d="M124.638 9.31836C126.422 9.3184 127.869 10.7602 127.869 12.5387V44.251C126.756 44.1771 125.632 44.1394 124.5 44.1394C123.462 44.1394 122.43 44.1713 121.407 44.2337V12.5387C121.407 10.7602 122.854 9.31843 124.638 9.31836Z" fill="#FFB547"/>
<path d="M33.7931 240.682C31.4735 240.682 29.4116 240.359 27.6075 239.715C25.8034 239.071 24.0798 238.008 22.4368 236.526C22.0824 236.268 21.8086 235.962 21.6153 235.608C21.4542 235.221 21.3737 234.834 21.3737 234.448C21.3737 233.836 21.5992 233.288 22.0502 232.805C22.5012 232.321 23.065 232.08 23.7416 232.08C24.257 232.08 24.7403 232.257 25.1913 232.611C26.4155 233.739 27.6881 234.593 29.0089 235.173C30.362 235.753 31.9406 236.042 33.7447 236.042C35.0334 236.042 36.2093 235.833 37.2724 235.414C38.3678 234.995 39.2376 234.432 39.882 233.723C40.5263 233.014 40.8485 232.193 40.8485 231.258C40.8485 230.099 40.5102 229.148 39.8336 228.407C39.1893 227.634 38.2389 227.006 36.9825 226.523C35.7583 226.007 34.2763 225.572 32.5366 225.218C30.9258 224.928 29.4761 224.525 28.1874 224.01C26.931 223.494 25.8517 222.85 24.9497 222.077C24.0476 221.271 23.355 220.321 22.8717 219.226C22.3885 218.13 22.1469 216.858 22.1469 215.408C22.1469 213.443 22.6623 211.751 23.6932 210.334C24.7242 208.916 26.1256 207.821 27.8975 207.048C29.6694 206.275 31.6668 205.888 33.8897 205.888C35.9193 205.888 37.8201 206.21 39.592 206.854C41.3639 207.467 42.7975 208.304 43.8929 209.367C44.6661 210.044 45.0527 210.769 45.0527 211.542C45.0527 212.122 44.8111 212.669 44.3278 213.185C43.8768 213.668 43.3452 213.91 42.7331 213.91C42.2821 213.91 41.8955 213.781 41.5733 213.523C41.0579 212.976 40.3652 212.492 39.4954 212.073C38.6255 211.622 37.6912 211.252 36.6925 210.962C35.726 210.672 34.7918 210.527 33.8897 210.527C32.44 210.527 31.1997 210.737 30.1687 211.155C29.1378 211.542 28.3485 212.09 27.8008 212.798C27.2531 213.475 26.9793 214.28 26.9793 215.215C26.9793 216.31 27.2854 217.212 27.8975 217.921C28.5418 218.63 29.4277 219.209 30.5553 219.66C31.6829 220.079 32.9715 220.466 34.4213 220.82C36.1932 221.207 37.7718 221.642 39.1571 222.125C40.5746 222.608 41.7666 223.236 42.7331 224.01C43.6996 224.751 44.4406 225.685 44.956 226.812C45.4715 227.94 45.7292 229.341 45.7292 231.017C45.7292 232.95 45.1816 234.641 44.0862 236.091C42.9908 237.541 41.5411 238.668 39.737 239.474C37.9651 240.279 35.9838 240.682 33.7931 240.682Z" fill="#FFB547"/>
<path d="M87.7697 206.323C88.4785 206.323 89.0423 206.564 89.4611 207.048C89.8799 207.499 90.0893 208.079 90.0893 208.787V227.102C90.0893 229.68 89.5255 231.983 88.3979 234.013C87.2704 236.042 85.724 237.637 83.7588 238.797C81.7936 239.925 79.5223 240.488 76.945 240.488C74.3999 240.488 72.1287 239.925 70.1312 238.797C68.166 237.637 66.6036 236.042 65.4438 234.013C64.3162 231.983 63.7524 229.68 63.7524 227.102V208.787C63.7524 208.079 63.994 207.499 64.4773 207.048C64.9605 206.564 65.5887 206.323 66.3619 206.323C66.974 206.323 67.5217 206.564 68.005 207.048C68.5204 207.499 68.7782 208.079 68.7782 208.787V227.102C68.7782 228.81 69.1486 230.308 69.8896 231.597C70.6628 232.853 71.6776 233.852 72.9341 234.593C74.1905 235.301 75.5275 235.656 76.945 235.656C78.4914 235.656 79.9089 235.301 81.1976 234.593C82.4862 233.852 83.5171 232.853 84.2903 231.597C85.0957 230.308 85.4985 228.81 85.4985 227.102V208.787C85.4985 208.079 85.6917 207.499 86.0783 207.048C86.4972 206.564 87.0609 206.323 87.7697 206.323Z" fill="#FFB547"/>
<path d="M135.418 206.371C136.062 206.371 136.578 206.597 136.964 207.048C137.383 207.467 137.593 207.998 137.593 208.642V237.734C137.593 238.443 137.351 239.039 136.868 239.522C136.417 239.973 135.837 240.198 135.128 240.198C134.806 240.198 134.452 240.134 134.065 240.005C133.711 239.876 133.437 239.699 133.243 239.474L113.382 213.717L114.494 213.088V237.975C114.494 238.588 114.284 239.119 113.865 239.57C113.447 239.989 112.915 240.198 112.271 240.198C111.594 240.198 111.046 239.989 110.628 239.57C110.241 239.119 110.048 238.588 110.048 237.975V208.836C110.048 208.095 110.289 207.499 110.773 207.048C111.256 206.597 111.836 206.371 112.512 206.371C112.867 206.371 113.237 206.452 113.624 206.613C114.043 206.742 114.349 206.951 114.542 207.241L133.92 232.466L133.195 233.143V208.642C133.195 207.998 133.405 207.467 133.823 207.048C134.242 206.597 134.774 206.371 135.418 206.371Z" fill="#FFB547"/>
<path d="M182.94 206.371C183.585 206.371 184.1 206.597 184.487 207.048C184.906 207.467 185.115 207.998 185.115 208.642V237.734C185.115 238.443 184.873 239.039 184.39 239.522C183.939 239.973 183.359 240.198 182.65 240.198C182.328 240.198 181.974 240.134 181.587 240.005C181.233 239.876 180.959 239.699 180.766 239.474L160.904 213.717L162.016 213.088V237.975C162.016 238.588 161.806 239.119 161.388 239.57C160.969 239.989 160.437 240.198 159.793 240.198C159.116 240.198 158.569 239.989 158.15 239.57C157.763 239.119 157.57 238.588 157.57 237.975V208.836C157.57 208.095 157.812 207.499 158.295 207.048C158.778 206.597 159.358 206.371 160.035 206.371C160.389 206.371 160.759 206.452 161.146 206.613C161.565 206.742 161.871 206.951 162.064 207.241L181.442 232.466L180.717 233.143V208.642C180.717 207.998 180.927 207.467 181.346 207.048C181.764 206.597 182.296 206.371 182.94 206.371Z" fill="#FFB547"/>
<path d="M226.21 206.226C226.822 206.226 227.37 206.468 227.853 206.951C228.369 207.402 228.626 207.982 228.626 208.691C228.626 208.948 228.578 209.206 228.481 209.464C228.417 209.689 228.304 209.931 228.143 210.189L217.077 225.846L217.85 222.995V237.734C217.85 238.443 217.608 239.039 217.125 239.522C216.642 239.973 216.094 240.198 215.482 240.198C214.806 240.198 214.226 239.973 213.742 239.522C213.291 239.039 213.066 238.443 213.066 237.734V223.381L213.404 224.783L202.724 210.527C202.467 210.173 202.289 209.851 202.193 209.561C202.096 209.238 202.048 208.932 202.048 208.642C202.048 207.934 202.322 207.354 202.869 206.903C203.449 206.452 204.029 206.226 204.609 206.226C205.382 206.226 206.043 206.597 206.59 207.338L216.255 220.579L215.095 220.434L224.18 207.386C224.728 206.613 225.405 206.226 226.21 206.226Z" fill="#FFB547"/>
</svg>
