<svg width="160" height="160" viewBox="0 0 160 160" fill="none" xmlns="http://www.w3.org/2000/svg">
<path d="M81.6754 127.751C81.6754 128.793 80.8305 129.638 79.7885 129.638C78.7465 129.637 77.9018 128.793 77.9017 127.751V109.02C78.4992 109.057 79.1016 109.076 79.7082 109.076C80.3693 109.076 81.0253 109.054 81.6754 109.01V127.751Z" fill="#FFB547"/>
<path fill-rule="evenodd" clip-rule="evenodd" d="M143.132 36.9643C145.344 36.5272 147.279 36.3313 148.823 36.4667C150.318 36.598 151.828 37.081 152.577 38.3897C153.326 39.6984 152.977 41.2433 152.332 42.5977C151.666 43.9959 150.515 45.5631 149.017 47.2459C147.848 48.5576 146.428 49.9836 144.78 51.5079C144.902 52.0085 144.966 52.5318 144.963 53.0701C144.948 56.6469 142.035 59.5346 138.455 59.5198C137.544 59.516 136.678 59.3243 135.893 58.9823C135.721 59.117 135.548 59.2522 135.373 59.3877C127.209 65.7275 116.554 73.0488 104.317 80.6522C103.971 93.9799 93.0586 104.678 79.6475 104.678C75.2924 104.678 71.201 103.549 67.6492 101.569C62.9621 104.014 58.4196 106.292 54.0747 108.382L47.3579 115.099C46.6211 115.836 45.4263 115.836 44.6895 115.099C44.0931 114.503 43.9794 113.606 44.3485 112.895C40.784 114.484 37.4087 115.912 34.2598 117.162C27.2577 119.943 21.3101 121.876 16.8675 122.754C14.6561 123.191 12.7209 123.387 11.1772 123.251C9.68161 123.12 8.17204 122.637 7.42303 121.328C6.67402 120.02 7.02316 118.475 7.66843 117.12C8.33448 115.722 9.48473 114.155 10.9833 112.472C13.2907 109.881 16.5813 106.843 20.6713 103.485C20.1736 102.662 19.8889 101.696 19.8931 100.664C19.9055 97.6712 22.3438 95.255 25.3391 95.2674C28.3343 95.2798 30.7524 97.7161 30.7401 100.709C30.7277 103.702 28.2894 106.118 25.2942 106.106C23.8519 106.1 22.5437 105.531 21.576 104.61C18.9697 106.709 16.8063 108.605 15.1515 110.254C13.7032 111.698 12.6172 112.977 11.9691 114.056C11.3487 115.088 11.0041 116.147 11.477 116.974C11.9499 117.8 13.0386 118.04 14.2436 118.03C15.5021 118.018 17.1568 117.732 19.1361 117.217C23.1046 116.184 28.5259 114.189 35.004 111.412C47.9683 105.853 65.2534 97.1177 83.7915 86.5254C102.329 75.9331 118.63 65.4778 130 57.1327C130.832 56.5218 131.638 55.9216 132.417 55.3335C132.145 54.6134 131.997 53.8322 132 53.0164C132.015 49.4396 134.929 46.552 138.508 46.5668C139.75 46.572 140.908 46.9255 141.891 47.5341C142.303 47.1484 142.691 46.7743 143.054 46.4121C144.503 44.9689 145.589 43.6889 146.237 42.6108C146.857 41.5787 147.202 40.5191 146.729 39.6927C146.256 38.8665 145.167 38.6258 143.962 38.6366C142.704 38.6479 141.049 38.9342 139.07 39.4495C135.101 40.4827 129.68 42.477 123.202 45.2547C122.553 45.533 121.893 45.8193 121.223 46.1134C120.894 45.6804 120.559 45.2529 120.218 44.831C122.126 44.0184 123.969 43.2591 125.74 42.5557C132.742 39.7753 138.69 37.8423 143.132 36.9643ZM103.357 81.2471C102.443 81.8123 101.52 82.3789 100.589 82.9467C99.1251 93.1761 90.3276 101.039 79.6932 101.039C76.8483 101.039 74.1349 100.476 71.6581 99.456C70.6491 99.9933 69.646 100.523 68.6492 101.046C71.9372 102.768 75.6785 103.742 79.6475 103.742C92.3416 103.742 102.709 93.7798 103.357 81.2471ZM99.4857 83.6181C99.3287 83.7133 99.1715 83.8086 99.014 83.9039C97.5536 87.0288 94.3743 89.1949 90.6871 89.1949C90.4965 89.1949 90.3073 89.189 90.1197 89.1776C88.9296 89.8688 87.7294 90.5603 86.5199 91.2514C83.6344 92.9001 80.7742 94.5018 77.9499 96.0528C79.5519 96.5569 81.2572 96.8291 83.0264 96.8291C91.0976 96.829 97.8427 91.171 99.4857 83.6181Z" fill="#FFB547"/>
<path d="M96.5199 116.084C96.8684 116.925 96.4688 117.89 95.6274 118.239C94.7861 118.587 93.8215 118.187 93.473 117.346L89.3685 107.437C90.4117 107.071 91.4278 106.647 92.413 106.169L96.5199 116.084Z" fill="#FFB547"/>
<path d="M67.2056 106.266C68.1491 106.715 69.1206 107.114 70.1167 107.461L66.0053 117.387C65.6728 118.19 64.7524 118.571 63.9497 118.238C63.147 117.906 62.7658 116.986 63.0982 116.183L67.2056 106.266Z" fill="#FFB547"/>
<path d="M114.888 112.431C115.624 113.167 115.624 114.362 114.888 115.099C114.151 115.836 112.956 115.836 112.219 115.099L98.9472 101.827C99.893 100.996 100.784 100.104 101.616 99.1584L114.888 112.431Z" fill="#FFB547"/>
<path d="M52.2112 89.6381C52.5797 90.6805 53.0057 91.6957 53.4855 92.6798L43.7046 96.7313C42.8632 97.0798 41.8986 96.6803 41.5501 95.8389C41.2016 94.9975 41.6012 94.0329 42.4426 93.6844L52.2112 89.6381Z" fill="#FFB547"/>
<path d="M117.176 93.7833C117.978 94.1158 118.36 95.0362 118.027 95.8389C117.695 96.6416 116.774 97.0229 115.971 96.6904L105.991 92.5563C106.444 91.615 106.849 90.6456 107.201 89.6514L117.176 93.7833Z" fill="#FFB547"/>
<path d="M79.6475 55.3222C89.4959 55.3222 97.9964 61.0914 101.955 69.4344C101.692 69.6042 101.427 69.7745 101.161 69.945C97.3757 61.859 89.1658 56.2578 79.6475 56.2578C66.5351 56.2578 55.9053 66.8876 55.9053 80C55.9053 85.073 57.4968 89.7742 60.2071 93.6322C59.9267 93.7776 59.647 93.9221 59.3683 94.0658C56.5953 90.0753 54.9697 85.2275 54.9697 80C54.9697 66.3708 66.0183 55.3222 79.6475 55.3222Z" fill="#FFB547"/>
<path d="M79.6932 58.8181C88.292 58.8182 95.6896 63.9595 98.9808 71.3355C98.6029 71.575 98.2228 71.8152 97.8406 72.0559C94.9902 66.8187 89.4251 63.2625 83.0264 63.2625C73.725 63.2625 66.1847 70.7767 66.1847 80.0458C66.1848 83.362 67.1501 86.4535 68.8157 89.0567C66.7186 90.1983 64.6554 91.3025 62.6333 92.3659C60.086 88.8777 58.5826 84.5788 58.5826 79.9288C58.5826 68.2697 68.0341 58.8181 79.6932 58.8181Z" fill="#FFB547"/>
<path d="M50.6073 78.1132C50.5708 78.7107 50.5522 79.313 50.5522 79.9197C50.5522 80.5808 50.5743 81.2367 50.6177 81.8868H32.0379C30.9958 81.8867 30.151 81.042 30.1509 80C30.1509 78.9579 30.9958 78.1132 32.0379 78.1132H50.6073Z" fill="#FFB547"/>
<path d="M127.539 78.1132C128.581 78.1132 129.426 78.9579 129.426 80C129.426 81.042 128.581 81.8867 127.539 81.8868H108.799C108.842 81.2367 108.864 80.5808 108.864 79.9197C108.864 79.313 108.846 78.7107 108.809 78.1132H127.539Z" fill="#FFB547"/>
<path d="M90.6871 70.8966C92.8713 70.8966 94.8774 71.6568 96.4536 72.9261C91.7944 75.838 86.8423 78.8229 81.6787 81.8201C81.5655 81.2461 81.506 80.6529 81.506 80.0458C81.506 74.9929 85.6165 70.8966 90.6871 70.8966Z" fill="#FFB547"/>
<path d="M41.5501 64.1612C41.8826 63.3584 42.803 62.9772 43.6057 63.3097L53.3878 67.3616C52.9373 68.3041 52.5359 69.2747 52.187 70.2699L42.4016 66.2167C41.5988 65.8841 41.2176 64.9639 41.5501 64.1612Z" fill="#FFB547"/>
<path d="M112.219 44.901C112.956 44.1641 114.151 44.1641 114.888 44.901C115.624 45.6378 115.624 46.8324 114.888 47.5692L101.69 60.7662C100.863 59.8172 99.9751 58.9221 99.0326 58.0873L112.219 44.901Z" fill="#FFB547"/>
<path d="M44.6895 44.901C45.4263 44.1641 46.6211 44.1641 47.3579 44.901L60.4693 58.0123C59.5236 58.8435 58.632 59.7348 57.8008 60.6805L44.6895 47.5692C43.9527 46.8324 43.9527 45.6378 44.6895 44.901Z" fill="#FFB547"/>
<path d="M93.5718 42.6129C93.9044 41.8102 94.8247 41.4291 95.6274 41.7616C96.4301 42.0941 96.8114 43.0143 96.4789 43.817L92.4002 53.6638C91.4598 53.2084 90.4913 52.8019 89.4979 52.4479L93.5718 42.6129Z" fill="#FFB547"/>
<path d="M63.9497 41.7616C64.7911 41.4131 65.7557 41.8126 66.1042 42.6539L70.13 52.3734C69.0857 52.7365 68.0683 53.1573 67.0818 53.632L63.0573 43.9161C62.7088 43.0747 63.1083 42.1101 63.9497 41.7616Z" fill="#FFB547"/>
<path d="M79.7885 30.3624C80.8305 30.3624 81.6754 31.2072 81.6754 32.2492V50.829C81.0253 50.7857 80.3693 50.7636 79.7082 50.7636C79.1016 50.7636 78.4992 50.7823 77.9017 50.8188V32.2492C77.9017 31.2072 78.7465 30.3625 79.7885 30.3624Z" fill="#FFB547"/>
</svg>
