<svg width="250" height="42" viewBox="0 0 250 42" fill="none" xmlns="http://www.w3.org/2000/svg">
<path d="M14.981 41.9701C12.183 41.9701 9.69587 41.5815 7.51965 40.8043C5.34342 40.0271 3.26434 38.7446 1.28242 36.957C0.854947 36.6461 0.524627 36.2769 0.291459 35.8495C0.0971531 35.3831 0 34.9168 0 34.4505C0 33.7121 0.272029 33.0515 0.816086 32.4685C1.36014 31.8856 2.04021 31.5942 2.8563 31.5942C3.47808 31.5942 4.061 31.8079 4.60505 32.2354C6.08178 33.5955 7.6168 34.6253 9.21011 35.3248C10.8423 36.0243 12.7465 36.3741 14.9227 36.3741C16.4772 36.3741 17.8956 36.1215 19.178 35.6163C20.4993 35.1111 21.5485 34.431 22.3258 33.5761C23.103 32.7211 23.4916 31.7302 23.4916 30.6032C23.4916 29.2042 23.0836 28.0578 22.2675 27.164C21.4903 26.2313 20.3438 25.4735 18.8283 24.8906C17.3515 24.2688 15.5639 23.7442 13.4654 23.3167C11.5224 22.967 9.7736 22.4812 8.21915 21.8594C6.70356 21.2377 5.40171 20.4604 4.3136 19.5278C3.22548 18.5562 2.38996 17.4098 1.80705 16.0885C1.22413 14.7673 0.932669 13.2322 0.932669 11.4835C0.932669 9.11296 1.55445 7.07274 2.79801 5.36285C4.04157 3.65295 5.73203 2.33167 7.8694 1.399C10.0068 0.466334 12.4162 0 15.0976 0C17.5458 0 19.8387 0.388612 21.976 1.16584C24.1134 1.9042 25.8427 2.91459 27.164 4.19701C28.0967 5.0131 28.563 5.88747 28.563 6.82014C28.563 7.51964 28.2715 8.18029 27.6886 8.80207C27.1446 9.38498 26.5034 9.67644 25.765 9.67644C25.2209 9.67644 24.7546 9.521 24.366 9.21011C23.7442 8.54947 22.9087 7.96655 21.8594 7.46135C20.8102 6.9173 19.6832 6.47039 18.4785 6.12064C17.3127 5.77089 16.1857 5.59602 15.0976 5.59602C13.3488 5.59602 11.8527 5.84861 10.6091 6.35381C9.36555 6.82014 8.41345 7.48078 7.75281 8.33573C7.09217 9.15182 6.76185 10.1233 6.76185 11.2503C6.76185 12.5716 7.13103 13.6597 7.8694 14.5147C8.64662 15.3696 9.7153 16.0691 11.0754 16.6132C12.4356 17.1184 13.99 17.5847 15.7388 18.0122C17.8762 18.4785 19.7804 19.0031 21.4514 19.5861C23.1613 20.169 24.5992 20.9268 25.765 21.8594C26.9308 22.7532 27.8246 23.8802 28.4464 25.2404C29.0682 26.6005 29.3791 28.291 29.3791 30.3117C29.3791 32.6434 28.7184 34.6836 27.3972 36.4324C26.0759 38.1811 24.3271 39.5413 22.1509 40.5128C20.0135 41.4843 17.6236 41.9701 14.981 41.9701Z" fill="#FFB547"/>
<path d="M80.0907 0.524627C80.9456 0.524627 81.6257 0.816085 82.1309 1.399C82.6361 1.94306 82.8887 2.64256 82.8887 3.49751V25.5901C82.8887 28.699 82.2086 31.4776 80.8485 33.9258C79.4884 36.3741 77.623 38.2977 75.2525 39.6967C72.8819 41.0569 70.1422 41.7369 67.0333 41.7369C63.9633 41.7369 61.2236 41.0569 58.8142 39.6967C56.4436 38.2977 54.5589 36.3741 53.1599 33.9258C51.7997 31.4776 51.1197 28.699 51.1197 25.5901V3.49751C51.1197 2.64256 51.4111 1.94306 51.994 1.399C52.577 0.816085 53.3347 0.524627 54.2674 0.524627C55.0058 0.524627 55.6664 0.816085 56.2493 1.399C56.8711 1.94306 57.182 2.64256 57.182 3.49751V25.5901C57.182 27.6498 57.6289 29.4568 58.5227 31.0113C59.4554 32.5268 60.6795 33.7315 62.1951 34.6253C63.7107 35.4803 65.3234 35.9078 67.0333 35.9078C68.8987 35.9078 70.6086 35.4803 72.163 34.6253C73.7175 33.7315 74.961 32.5268 75.8937 31.0113C76.8652 29.4568 77.351 27.6498 77.351 25.5901V3.49751C77.351 2.64256 77.5841 1.94306 78.0505 1.399C78.5557 0.816085 79.2358 0.524627 80.0907 0.524627Z" fill="#FFB547"/>
<path d="M137.567 0.582918C138.344 0.582918 138.966 0.854946 139.432 1.399C139.937 1.9042 140.19 2.54541 140.19 3.32263V38.4143C140.19 39.2693 139.899 39.9882 139.316 40.5711C138.772 41.1152 138.072 41.3872 137.217 41.3872C136.829 41.3872 136.401 41.3095 135.935 41.154C135.507 40.9986 135.177 40.7848 134.944 40.5128L110.986 9.44327L112.327 8.68548V38.7058C112.327 39.4441 112.074 40.0853 111.569 40.6294C111.064 41.1346 110.422 41.3872 109.645 41.3872C108.829 41.3872 108.168 41.1346 107.663 40.6294C107.197 40.0853 106.964 39.4441 106.964 38.7058V3.5558C106.964 2.66199 107.255 1.94306 107.838 1.399C108.421 0.854946 109.12 0.582918 109.937 0.582918C110.364 0.582918 110.811 0.680071 111.277 0.874377C111.782 1.02982 112.152 1.28242 112.385 1.63217L135.76 32.0605L134.885 32.8766V3.32263C134.885 2.54541 135.138 1.9042 135.643 1.399C136.148 0.854946 136.79 0.582918 137.567 0.582918Z" fill="#FFB547"/>
<path d="M194.891 0.582918C195.668 0.582918 196.29 0.854946 196.756 1.399C197.262 1.9042 197.514 2.54541 197.514 3.32263V38.4143C197.514 39.2693 197.223 39.9882 196.64 40.5711C196.096 41.1152 195.396 41.3872 194.541 41.3872C194.153 41.3872 193.725 41.3095 193.259 41.154C192.831 40.9986 192.501 40.7848 192.268 40.5128L168.31 9.44327L169.651 8.68548V38.7058C169.651 39.4441 169.398 40.0853 168.893 40.6294C168.388 41.1346 167.746 41.3872 166.969 41.3872C166.153 41.3872 165.492 41.1346 164.987 40.6294C164.521 40.0853 164.288 39.4441 164.288 38.7058V3.5558C164.288 2.66199 164.579 1.94306 165.162 1.399C165.745 0.854946 166.445 0.582918 167.261 0.582918C167.688 0.582918 168.135 0.680071 168.601 0.874377C169.107 1.02982 169.476 1.28242 169.709 1.63217L193.084 32.0605L192.21 32.8766V3.32263C192.21 2.54541 192.462 1.9042 192.967 1.399C193.473 0.854946 194.114 0.582918 194.891 0.582918Z" fill="#FFB547"/>
<path d="M247.085 0.408044C247.824 0.408044 248.484 0.699503 249.067 1.28242C249.689 1.82648 250 2.52598 250 3.38093C250 3.69182 249.942 4.0027 249.825 4.3136C249.747 4.58562 249.611 4.87708 249.417 5.18797L236.068 24.0745L237.001 20.6353V38.4143C237.001 39.2693 236.709 39.9882 236.127 40.5711C235.544 41.1152 234.883 41.3872 234.145 41.3872C233.329 41.3872 232.629 41.1152 232.046 40.5711C231.502 39.9882 231.23 39.2693 231.23 38.4143V21.1016L231.638 22.7921L218.756 5.59602C218.445 5.16854 218.231 4.77993 218.114 4.43018C217.998 4.04157 217.94 3.67238 217.94 3.32263C217.94 2.46769 218.27 1.76819 218.93 1.22413C219.63 0.680073 220.329 0.408044 221.029 0.408044C221.962 0.408044 222.758 0.854949 223.419 1.74876L235.077 17.7207L233.678 17.5458L244.637 1.80705C245.298 0.874379 246.114 0.408044 247.085 0.408044Z" fill="#FFB547"/>
</svg>
