<svg width="500" height="500" viewBox="0 0 500 500" fill="none" xmlns="http://www.w3.org/2000/svg">
<path d="M255.37 403.064C255.37 406.404 252.662 409.112 249.322 409.112C245.982 409.112 243.274 406.404 243.274 403.064V343.025C245.189 343.142 247.12 343.202 249.065 343.202C251.184 343.202 253.286 343.131 255.37 342.992V403.064Z" fill="#FFB547"/>
<path fill-rule="evenodd" clip-rule="evenodd" d="M452.369 112.05C459.458 110.649 465.662 110.021 470.61 110.455C475.404 110.876 480.243 112.424 482.644 116.619C485.045 120.814 483.926 125.766 481.858 130.108C479.723 134.59 476.034 139.613 471.231 145.007C467.486 149.212 462.934 153.783 457.651 158.669C458.041 160.274 458.245 161.951 458.238 163.677C458.191 175.142 448.85 184.399 437.376 184.351C434.457 184.339 431.681 183.724 429.165 182.628C428.612 183.06 428.056 183.493 427.497 183.928C401.326 204.25 367.173 227.718 327.946 252.091C326.838 294.812 291.859 329.104 248.87 329.104C234.91 329.104 221.795 325.487 210.409 319.14C195.385 326.976 180.824 334.278 166.897 340.978L145.366 362.509C143.004 364.871 139.175 364.871 136.813 362.509C134.901 360.597 134.536 357.724 135.72 355.445C124.294 360.539 113.474 365.115 103.381 369.123C80.9356 378.036 61.8705 384.232 47.6299 387.046C40.5413 388.447 34.338 389.075 29.3897 388.641C24.5957 388.22 19.7568 386.672 17.3559 382.477C14.955 378.282 16.0741 373.33 18.1425 368.988C20.2775 364.506 23.9646 359.482 28.7681 354.088C36.1646 345.783 46.7126 336.044 59.8231 325.28C58.2277 322.642 57.3149 319.546 57.3286 316.238C57.3683 306.645 65.1841 298.9 74.7853 298.939C84.3865 298.979 92.1378 306.789 92.0982 316.382C92.0585 325.976 84.2427 333.721 74.6414 333.681C70.0184 333.662 65.8248 331.841 62.7228 328.887C54.3684 335.614 47.4336 341.694 42.1293 346.98C37.4868 351.606 34.0056 355.709 31.9283 359.164C29.9397 362.473 28.8348 365.869 30.3507 368.518C31.8667 371.167 35.3565 371.938 39.219 371.903C43.2533 371.867 48.5574 370.95 54.902 369.298C67.6227 365.986 85.0008 359.593 105.766 350.689C147.323 332.87 202.73 304.871 262.153 270.917C321.577 236.964 373.827 203.449 410.273 176.699C412.941 174.741 415.525 172.817 418.023 170.932C417.149 168.624 416.674 166.12 416.685 163.505C416.732 152.039 426.073 142.783 437.548 142.831C441.526 142.847 445.238 143.981 448.389 145.931C449.709 144.695 450.954 143.496 452.119 142.335C456.762 137.708 460.243 133.606 462.321 130.15C464.309 126.841 465.413 123.445 463.897 120.796C462.381 118.147 458.892 117.376 455.03 117.411C450.996 117.447 445.691 118.365 439.346 120.016C426.626 123.328 409.248 129.721 388.482 138.625C386.402 139.517 384.287 140.435 382.138 141.377C381.085 139.989 380.01 138.619 378.917 137.267C385.033 134.662 390.941 132.228 396.619 129.973C419.064 121.061 438.128 114.865 452.369 112.05ZM324.871 253.998C321.941 255.809 318.983 257.626 315.999 259.446C311.305 292.236 283.105 317.441 249.016 317.442C239.897 317.442 231.199 315.637 223.26 312.366C220.026 314.088 216.81 315.787 213.615 317.463C224.155 322.982 236.147 326.105 248.87 326.105C289.56 326.105 322.792 294.171 324.871 253.998ZM312.461 261.598C311.957 261.903 311.454 262.209 310.949 262.514C306.267 272.531 296.076 279.474 284.257 279.474C283.646 279.474 283.04 279.455 282.438 279.419C278.623 281.634 274.776 283.851 270.899 286.066C261.65 291.351 252.481 296.485 243.428 301.457C248.563 303.073 254.03 303.945 259.701 303.945C285.573 303.945 307.194 285.809 312.461 261.598Z" fill="#FFB547"/>
<path d="M302.954 365.667C304.071 368.364 302.79 371.456 300.093 372.573C297.396 373.69 294.304 372.409 293.187 369.712L280.03 337.949C283.374 336.775 286.631 335.416 289.789 333.885L302.954 365.667Z" fill="#FFB547"/>
<path d="M208.988 334.196C212.012 335.634 215.126 336.914 218.319 338.026L205.14 369.844C204.074 372.417 201.124 373.638 198.551 372.572C195.978 371.507 194.756 368.557 195.822 365.984L208.988 334.196Z" fill="#FFB547"/>
<path d="M361.831 353.956C364.193 356.318 364.193 360.147 361.831 362.509C359.47 364.871 355.64 364.871 353.278 362.509L310.735 319.966C313.766 317.301 316.624 314.444 319.288 311.412L361.831 353.956Z" fill="#FFB547"/>
<path d="M160.924 280.895C162.105 284.236 163.47 287.49 165.008 290.645L133.656 303.632C130.959 304.749 127.867 303.468 126.749 300.771C125.632 298.074 126.913 294.982 129.61 293.865L160.924 280.895Z" fill="#FFB547"/>
<path d="M369.165 294.182C371.738 295.248 372.961 298.198 371.895 300.771C370.829 303.345 367.879 304.567 365.306 303.501L333.313 290.249C334.766 287.232 336.062 284.124 337.19 280.938L369.165 294.182Z" fill="#FFB547"/>
<path d="M248.87 170.896C280.439 170.896 307.687 189.389 320.376 216.132C319.532 216.677 318.684 217.223 317.832 217.769C305.697 191.85 279.38 173.895 248.87 173.895C206.838 173.895 172.765 207.968 172.765 250C172.765 266.262 177.866 281.331 186.554 293.698C185.655 294.164 184.759 294.627 183.865 295.088C174.977 282.296 169.766 266.757 169.766 250C169.766 206.312 205.182 170.896 248.87 170.896Z" fill="#FFB547"/>
<path d="M249.016 182.102C276.58 182.102 300.292 198.582 310.842 222.226C309.631 222.994 308.412 223.764 307.187 224.535C298.051 207.748 280.212 196.348 259.701 196.348C229.885 196.348 205.715 220.435 205.715 250.147C205.715 260.777 208.81 270.687 214.149 279.031C207.427 282.691 200.813 286.23 194.331 289.639C186.166 278.457 181.347 264.677 181.347 249.772C181.347 212.399 211.644 182.102 249.016 182.102Z" fill="#FFB547"/>
<path d="M155.782 243.952C155.665 245.867 155.606 247.798 155.606 249.743C155.606 251.862 155.677 253.964 155.815 256.048H96.2582C92.9179 256.048 90.2098 253.34 90.2097 250C90.2097 246.66 92.9179 243.952 96.2582 243.952H155.782Z" fill="#FFB547"/>
<path d="M402.386 243.952C405.726 243.952 408.434 246.66 408.434 250C408.434 253.34 405.726 256.048 402.386 256.048H342.314C342.453 253.964 342.524 251.862 342.524 249.743C342.524 247.798 342.464 245.867 342.347 243.952H402.386Z" fill="#FFB547"/>
<path d="M284.257 220.819C291.259 220.819 297.689 223.256 302.741 227.325C287.806 236.659 271.933 246.227 255.381 255.834C255.018 253.994 254.827 252.093 254.827 250.147C254.827 233.95 268.003 220.819 284.257 220.819Z" fill="#FFB547"/>
<path d="M126.749 199.229C127.815 196.656 130.765 195.434 133.339 196.5L164.695 209.488C163.251 212.509 161.964 215.62 160.846 218.81L129.479 205.818C126.906 204.752 125.684 201.802 126.749 199.229Z" fill="#FFB547"/>
<path d="M353.278 137.491C355.64 135.129 359.47 135.129 361.831 137.491C364.193 139.853 364.193 143.682 361.831 146.044L319.528 188.347C316.875 185.305 314.029 182.435 311.008 179.759L353.278 137.491Z" fill="#FFB547"/>
<path d="M136.813 137.491C139.175 135.129 143.004 135.129 145.366 137.491L187.395 179.519C184.363 182.183 181.505 185.04 178.841 188.072L136.813 146.044C134.451 143.682 134.451 139.853 136.813 137.491Z" fill="#FFB547"/>
<path d="M293.504 130.157C294.57 127.583 297.52 126.362 300.093 127.428C302.666 128.493 303.888 131.443 302.823 134.016L289.748 165.58C286.734 164.12 283.629 162.817 280.445 161.682L293.504 130.157Z" fill="#FFB547"/>
<path d="M198.551 127.428C201.248 126.311 204.34 127.591 205.457 130.288L218.362 161.444C215.014 162.608 211.753 163.956 208.591 165.478L195.69 134.334C194.573 131.637 195.854 128.545 198.551 127.428Z" fill="#FFB547"/>
<path d="M249.322 90.8879C252.662 90.8879 255.37 93.5957 255.37 96.9359V156.493C253.286 156.354 251.184 156.283 249.065 156.283C247.12 156.283 245.189 156.343 243.274 156.46V96.9359C243.274 93.5957 245.982 90.888 249.322 90.8879Z" fill="#FFB547"/>
</svg>
