<svg width="401" height="119" viewBox="0 0 401 119" fill="none" xmlns="http://www.w3.org/2000/svg">
<path d="M89.0957 115.821C89.0956 117.06 88.0876 118.064 86.8444 118.065C85.6012 118.064 84.5933 117.06 84.5933 115.821V93.5453C85.3061 93.5888 86.0248 93.611 86.7486 93.611C87.5373 93.611 88.32 93.5847 89.0957 93.5332V115.821Z" fill="black"></path>
<path fill-rule="evenodd" clip-rule="evenodd" d="M162.42 7.85136C165.059 7.33156 167.368 7.09853 169.21 7.25964C170.994 7.41577 172.795 7.99018 173.689 9.54659C174.582 11.103 174.166 12.9403 173.396 14.5511C172.602 16.2138 171.229 18.0777 169.441 20.0789C168.047 21.6389 166.352 23.3348 164.386 25.1476C164.531 25.7429 164.607 26.3652 164.605 27.0055C164.587 31.2592 161.111 34.6934 156.84 34.6759C155.753 34.6714 154.72 34.4433 153.783 34.0366C153.578 34.1968 153.371 34.3576 153.163 34.5188C143.422 42.0584 130.71 50.7654 116.109 59.8079C115.696 75.6581 102.677 88.3807 86.6761 88.3807C81.48 88.3807 76.5985 87.0386 72.3609 84.6838C66.7687 87.5912 61.349 90.3003 56.1652 92.7861L48.1512 100.774C47.2721 101.651 45.8467 101.651 44.9675 100.774C44.256 100.065 44.1203 98.9989 44.5607 98.1536C40.3079 100.043 36.2808 101.741 32.5239 103.228C24.1696 106.535 17.0734 108.834 11.773 109.878C9.13452 110.398 6.8256 110.631 4.98379 110.469C3.19945 110.313 1.39837 109.739 0.504714 108.183C-0.388924 106.626 0.027634 104.789 0.797503 103.178C1.59217 101.515 2.96454 99.6514 4.75245 97.6502C7.50549 94.5687 11.4315 90.9556 16.3114 86.9621C15.7176 85.9832 15.3778 84.8346 15.3829 83.6073C15.3977 80.048 18.3068 77.1746 21.8804 77.1893C25.4541 77.2041 28.3392 80.1014 28.3244 83.6607C28.3096 87.22 25.4005 90.0934 21.8269 90.0787C20.1061 90.0716 18.5453 89.3959 17.3907 88.3001C14.2811 90.7958 11.6999 93.0517 9.72559 95.0127C7.99761 96.7291 6.70188 98.2513 5.9287 99.5334C5.1885 100.761 4.77727 102.021 5.34148 103.004C5.90576 103.986 7.2047 104.272 8.64234 104.26C10.1439 104.246 12.1182 103.906 14.4797 103.293C19.2144 102.064 25.6827 99.6924 33.4117 96.3889C48.8795 89.7779 69.5025 79.3898 91.6204 66.7927C113.738 54.1956 133.186 41.7615 146.752 31.837C147.745 31.1104 148.707 30.3967 149.636 29.6973C149.311 28.8408 149.134 27.9119 149.138 26.9416C149.156 22.6878 152.633 19.2537 156.904 19.2714C158.384 19.2775 159.766 19.698 160.939 20.4217C161.43 19.963 161.893 19.5181 162.327 19.0873C164.055 17.3709 165.351 15.8488 166.124 14.5666C166.864 13.3391 167.275 12.079 166.711 11.0962C166.147 10.1136 164.848 9.82739 163.411 9.84024C161.909 9.85367 159.935 10.1942 157.573 10.807C152.838 12.0357 146.37 14.4075 138.641 17.7109C137.867 18.0419 137.079 18.3824 136.28 18.7321C135.888 18.2171 135.488 17.7087 135.081 17.207C137.357 16.2406 139.556 15.3376 141.67 14.5011C150.024 11.1944 157.12 8.8956 162.42 7.85136ZM114.964 60.5154C113.874 61.1876 112.773 61.8614 111.662 62.5367C109.915 74.7022 99.4186 84.0537 86.7307 84.0538C83.3364 84.0538 80.099 83.3841 77.1439 82.1707C75.9402 82.8096 74.7433 83.44 73.554 84.0616C77.477 86.1094 81.9408 87.268 86.6761 87.268C101.822 87.268 114.19 75.4201 114.964 60.5154ZM110.345 63.3351C110.158 63.4484 109.97 63.5618 109.782 63.6751C108.04 67.3914 104.247 69.9675 99.8475 69.9675C99.6202 69.9675 99.3945 69.9604 99.1706 69.9469C97.7506 70.7689 96.3188 71.5912 94.8757 72.4131C91.433 74.3739 88.0204 76.2788 84.6508 78.1233C86.562 78.7228 88.5967 79.0465 90.7075 79.0465C100.337 79.0465 108.385 72.3176 110.345 63.3351Z" fill="black"></path>
<path d="M106.807 101.946C107.223 102.946 106.746 104.094 105.742 104.508C104.738 104.922 103.587 104.447 103.171 103.447L98.2743 91.6622C99.519 91.2267 100.731 90.7225 101.907 90.1544L106.807 101.946Z" fill="black"></path>
<path d="M71.8317 90.27C72.9574 90.8034 74.1165 91.2782 75.3049 91.6907L70.3996 103.495C70.0029 104.45 68.9048 104.903 67.947 104.508C66.9893 104.112 66.5345 103.018 66.9311 102.063L71.8317 90.27Z" fill="black"></path>
<path d="M128.721 97.6009C129.6 98.4772 129.6 99.898 128.721 100.774C127.842 101.651 126.417 101.651 125.538 100.774L109.703 84.9902C110.831 84.0017 111.895 82.9415 112.886 81.8168L128.721 97.6009Z" fill="black"></path>
<path d="M53.9418 70.4945C54.3814 71.7342 54.8897 72.9416 55.4621 74.112L43.7924 78.9302C42.7886 79.3447 41.6377 78.8696 41.2219 77.869C40.8061 76.8684 41.2829 75.7212 42.2868 75.3067L53.9418 70.4945Z" fill="black"></path>
<path d="M131.451 75.4243C132.409 75.8198 132.864 76.9143 132.467 77.869C132.07 78.8236 130.972 79.277 130.014 78.8816L118.107 73.9651C118.648 72.8456 119.13 71.6927 119.55 70.5104L131.451 75.4243Z" fill="black"></path>
<path d="M86.6761 29.6838C98.4263 29.6838 108.568 36.5449 113.291 46.467C112.977 46.6689 112.661 46.8715 112.344 47.0743C107.828 37.4579 98.0324 30.7965 86.6761 30.7965C71.0316 30.7965 58.3492 43.4381 58.3492 59.0323C58.3492 65.0655 60.248 70.6564 63.4818 75.2446C63.1471 75.4175 62.8135 75.5894 62.481 75.7602C59.1725 71.0145 57.233 65.2492 57.233 59.0323C57.233 42.8236 70.4151 29.6838 86.6761 29.6838Z" fill="black"></path>
<path d="M86.7307 33.8414C96.9899 33.8415 105.816 39.9558 109.743 48.7279C109.292 49.0128 108.838 49.2984 108.382 49.5846C104.982 43.3562 98.3419 39.1269 90.7075 39.1269C79.6099 39.127 70.6137 48.0634 70.6137 59.0868C70.6137 63.0306 71.7654 66.7072 73.7527 69.8031C71.2506 71.1608 68.789 72.4739 66.3764 73.7386C63.3372 69.5902 61.5435 64.4777 61.5435 58.9476C61.5435 45.0819 72.8202 33.8414 86.7307 33.8414Z" fill="black"></path>
<path d="M52.0282 56.7884C51.9846 57.4989 51.9624 58.2153 51.9624 58.9368C51.9624 59.723 51.9888 60.503 52.0405 61.2761H29.8728C28.6295 61.2761 27.6215 60.2715 27.6215 59.0323C27.6215 57.793 28.6295 56.7884 29.8728 56.7884H52.0282Z" fill="black"></path>
<path d="M143.816 56.7884C145.059 56.7884 146.067 57.793 146.067 59.0323C146.067 60.2715 145.059 61.2761 143.816 61.2761H121.457C121.508 60.503 121.535 59.723 121.535 58.9368C121.535 58.2153 121.513 57.4989 121.469 56.7884H143.816Z" fill="black"></path>
<path d="M99.8475 48.2059C102.454 48.2059 104.847 49.11 106.728 50.6195C101.169 54.0825 95.2603 57.6324 89.0996 61.1969C88.9646 60.5142 88.8936 59.8088 88.8936 59.0868C88.8936 53.0775 93.7978 48.2059 99.8475 48.2059Z" fill="black"></path>
<path d="M41.2219 40.1957C41.6186 39.241 42.7167 38.7877 43.6745 39.1831L55.3456 44.0018C54.8081 45.1228 54.3292 46.277 53.9129 47.4606L42.2378 42.6402C41.2801 42.2448 40.8253 41.1504 41.2219 40.1957Z" fill="black"></path>
<path d="M125.538 17.2902C126.417 16.4139 127.842 16.4139 128.721 17.2902C129.6 18.1665 129.6 19.5872 128.721 20.4635L112.976 36.1582C111.988 35.0296 110.929 33.9651 109.805 32.9723L125.538 17.2902Z" fill="black"></path>
<path d="M44.9675 17.2902C45.8467 16.4139 47.2721 16.4139 48.1512 17.2902L63.7946 32.883C62.6662 33.8715 61.6024 34.9316 60.6107 36.0563L44.9675 20.4635C44.0885 19.5872 44.0885 18.1665 44.9675 17.2902Z" fill="black"></path>
<path d="M103.289 14.5691C103.686 13.6144 104.784 13.1612 105.742 13.5566C106.7 13.9521 107.154 15.0465 106.758 16.0011L101.891 27.7115C100.77 27.1699 99.614 26.6866 98.4288 26.2655L103.289 14.5691Z" fill="black"></path>
<path d="M67.947 13.5566C68.9509 13.1422 70.1017 13.6173 70.5176 14.6179L75.3208 26.1769C74.0748 26.6087 72.8609 27.1091 71.6839 27.6737L66.8823 16.1189C66.4665 15.1183 66.9432 13.9711 67.947 13.5566Z" fill="black"></path>
<path d="M86.8444 0C88.0876 2.62756e-05 89.0957 1.00463 89.0957 2.24388V24.3402C88.32 24.2887 87.5373 24.2624 86.7486 24.2624C86.0248 24.2624 85.3061 24.2846 84.5933 24.3281V2.24388C84.5933 1.00464 85.6012 5.00126e-05 86.8444 0Z" fill="black"></path>
<path d="M199.014 76.9902C196.619 76.9902 194.491 76.6576 192.629 75.9925C190.766 75.3274 188.987 74.23 187.291 72.7002C186.925 72.4342 186.643 72.1183 186.443 71.7525C186.277 71.3534 186.194 70.9543 186.194 70.5553C186.194 69.9234 186.426 69.3581 186.892 68.8592C187.358 68.3604 187.94 68.111 188.638 68.111C189.17 68.111 189.669 68.2939 190.134 68.6597C191.398 69.8236 192.712 70.7049 194.075 71.3035C195.472 71.9021 197.101 72.2014 198.964 72.2014C200.294 72.2014 201.508 71.9852 202.605 71.5529C203.736 71.1206 204.634 70.5386 205.299 69.807C205.964 69.0754 206.296 68.2274 206.296 67.263C206.296 66.0658 205.947 65.0847 205.249 64.3199C204.584 63.5217 203.603 62.8733 202.306 62.3744C201.042 61.8423 199.512 61.3934 197.717 61.0276C196.054 60.7283 194.557 60.3126 193.227 59.7805C191.93 59.2484 190.816 58.5833 189.885 57.7852C188.954 56.9538 188.239 55.9728 187.74 54.8421C187.241 53.7114 186.992 52.3978 186.992 50.9013C186.992 48.8727 187.524 47.1268 188.588 45.6636C189.652 44.2003 191.099 43.0697 192.928 42.2715C194.757 41.4734 196.819 41.0743 199.113 41.0743C201.208 41.0743 203.17 41.4069 205 42.072C206.829 42.7039 208.308 43.5685 209.439 44.6659C210.237 45.3643 210.636 46.1125 210.636 46.9107C210.636 47.5093 210.387 48.0746 209.888 48.6067C209.423 49.1055 208.874 49.3549 208.242 49.3549C207.776 49.3549 207.377 49.2219 207.045 48.9559C206.513 48.3905 205.798 47.8917 204.9 47.4594C204.002 46.9938 203.037 46.6114 202.007 46.3121C201.009 46.0128 200.044 45.8631 199.113 45.8631C197.617 45.8631 196.337 46.0793 195.272 46.5116C194.208 46.9107 193.393 47.476 192.828 48.2076C192.263 48.906 191.98 49.7374 191.98 50.7018C191.98 51.8325 192.296 52.7636 192.928 53.4952C193.593 54.2269 194.507 54.8255 195.671 55.291C196.835 55.7233 198.166 56.1224 199.662 56.4882C201.491 56.8873 203.121 57.3362 204.551 57.8351C206.014 58.3339 207.244 58.9824 208.242 59.7805C209.24 60.5454 210.004 61.5098 210.537 62.6737C211.069 63.8377 211.335 65.2843 211.335 67.0136C211.335 69.0089 210.769 70.7548 209.639 72.2513C208.508 73.7478 207.011 74.9117 205.149 75.7431C203.32 76.5745 201.275 76.9902 199.014 76.9902Z" fill="black"></path>
<path d="M254.731 41.5233C255.463 41.5233 256.045 41.7727 256.477 42.2715C256.909 42.7371 257.125 43.3357 257.125 44.0673V62.973C257.125 65.6335 256.543 68.0112 255.38 70.1063C254.216 72.2014 252.619 73.8475 250.591 75.0447C248.562 76.2087 246.218 76.7906 243.557 76.7906C240.93 76.7906 238.586 76.2087 236.524 75.0447C234.495 73.8475 232.882 72.2014 231.685 70.1063C230.521 68.0112 229.939 65.6335 229.939 62.973V44.0673C229.939 43.3357 230.189 42.7371 230.687 42.2715C231.186 41.7727 231.835 41.5233 232.633 41.5233C233.265 41.5233 233.83 41.7727 234.329 42.2715C234.861 42.7371 235.127 43.3357 235.127 44.0673V62.973C235.127 64.7356 235.509 66.2819 236.274 67.6122C237.072 68.9091 238.12 69.94 239.417 70.7049C240.714 71.4365 242.094 71.8023 243.557 71.8023C245.153 71.8023 246.617 71.4365 247.947 70.7049C249.277 69.94 250.341 68.9091 251.139 67.6122C251.971 66.2819 252.387 64.7356 252.387 62.973V44.0673C252.387 43.3357 252.586 42.7371 252.985 42.2715C253.417 41.7727 253.999 41.5233 254.731 41.5233Z" fill="black"></path>
<path d="M303.916 41.5732C304.581 41.5732 305.113 41.806 305.512 42.2715C305.945 42.7039 306.161 43.2526 306.161 43.9177V73.9473C306.161 74.6789 305.911 75.2941 305.413 75.793C304.947 76.2586 304.348 76.4913 303.617 76.4913C303.284 76.4913 302.919 76.4248 302.519 76.2918C302.154 76.1588 301.871 75.9759 301.671 75.7431L281.169 49.1554L282.317 48.5069V74.1967C282.317 74.8286 282.101 75.3773 281.668 75.8429C281.236 76.2752 280.687 76.4913 280.022 76.4913C279.324 76.4913 278.758 76.2752 278.326 75.8429C277.927 75.3773 277.728 74.8286 277.728 74.1967V44.1172C277.728 43.3523 277.977 42.7371 278.476 42.2715C278.975 41.806 279.573 41.5732 280.272 41.5732C280.637 41.5732 281.02 41.6563 281.419 41.8226C281.851 41.9556 282.167 42.1718 282.367 42.4711L302.37 68.51L301.622 69.2084V43.9177C301.622 43.2526 301.838 42.7039 302.27 42.2715C302.702 41.806 303.251 41.5732 303.916 41.5732Z" fill="black"></path>
<path d="M352.971 41.5732C353.636 41.5732 354.168 41.806 354.567 42.2715C355 42.7039 355.216 43.2526 355.216 43.9177V73.9473C355.216 74.6789 354.966 75.2941 354.468 75.793C354.002 76.2586 353.403 76.4913 352.672 76.4913C352.339 76.4913 351.973 76.4248 351.574 76.2918C351.209 76.1588 350.926 75.9759 350.726 75.7431L330.224 49.1554L331.372 48.5069V74.1967C331.372 74.8286 331.156 75.3773 330.723 75.8429C330.291 76.2752 329.742 76.4913 329.077 76.4913C328.379 76.4913 327.813 76.2752 327.381 75.8429C326.982 75.3773 326.782 74.8286 326.782 74.1967V44.1172C326.782 43.3523 327.032 42.7371 327.531 42.2715C328.03 41.806 328.628 41.5732 329.327 41.5732C329.692 41.5732 330.075 41.6563 330.474 41.8226C330.906 41.9556 331.222 42.1718 331.422 42.4711L351.425 68.51L350.676 69.2084V43.9177C350.676 43.2526 350.893 42.7039 351.325 42.2715C351.757 41.806 352.306 41.5732 352.971 41.5732Z" fill="black"></path>
<path d="M397.636 41.4235C398.268 41.4235 398.834 41.6729 399.332 42.1718C399.865 42.6373 400.131 43.2359 400.131 43.9676C400.131 44.2336 400.081 44.4996 399.981 44.7657C399.914 44.9985 399.798 45.2479 399.632 45.5139L388.208 61.6761L389.007 58.733V73.9473C389.007 74.6789 388.757 75.2941 388.258 75.793C387.76 76.2586 387.194 76.4913 386.562 76.4913C385.864 76.4913 385.265 76.2586 384.767 75.793C384.301 75.2941 384.068 74.6789 384.068 73.9473V59.132L384.417 60.5786L373.393 45.8631C373.127 45.4973 372.944 45.1648 372.844 44.8655C372.745 44.5329 372.695 44.217 372.695 43.9177C372.695 43.1861 372.978 42.5875 373.543 42.1219C374.141 41.6563 374.74 41.4235 375.339 41.4235C376.137 41.4235 376.819 41.806 377.384 42.5708L387.36 56.2388L386.163 56.0892L395.541 42.6207C396.107 41.8226 396.805 41.4235 397.636 41.4235Z" fill="black"></path>
</svg>