<svg width="33" height="32" viewBox="0 0 33 32" fill="none" xmlns="http://www.w3.org/2000/svg">
<path d="M16.3727 26.4694C16.3727 26.6979 16.1874 26.8831 15.959 26.8831C15.7305 26.8831 15.5453 26.6979 15.5453 26.4694V22.3627C15.6763 22.3708 15.8084 22.3749 15.9414 22.3749C16.0863 22.3749 16.2301 22.37 16.3727 22.3605V26.4694Z" fill="#FFB547"/>
<path fill-rule="evenodd" clip-rule="evenodd" d="M29.8472 6.56435C30.332 6.46852 30.7564 6.42556 31.0948 6.45526C31.4227 6.48404 31.7537 6.58994 31.9179 6.87688C32.0821 7.16381 32.0056 7.50253 31.8642 7.79949C31.7181 8.10603 31.4658 8.44965 31.1373 8.8186C30.8812 9.10619 30.5698 9.41884 30.2084 9.75305C30.2351 9.86281 30.2491 9.97753 30.2486 10.0956C30.2454 10.8798 29.6065 11.5129 28.8216 11.5097C28.622 11.5088 28.4321 11.4668 28.26 11.3918C28.2222 11.4214 28.1842 11.451 28.1459 11.4807C26.3559 12.8707 24.0199 14.4759 21.3368 16.143C21.261 19.0651 18.8684 21.4106 15.928 21.4106C14.9732 21.4106 14.0761 21.1632 13.2974 20.7291C12.2698 21.265 11.2738 21.7645 10.3212 22.2228L8.84852 23.6955C8.68696 23.857 8.42502 23.857 8.26346 23.6955C8.1327 23.5647 8.10777 23.3682 8.1887 23.2123C7.40717 23.5607 6.66714 23.8737 5.97675 24.1479C4.44153 24.7575 3.1375 25.1813 2.16346 25.3738C1.67861 25.4696 1.25431 25.5126 0.915847 25.4829C0.587946 25.4541 0.256971 25.3482 0.0927488 25.0613C-0.0714707 24.7743 0.00507815 24.4356 0.146553 24.1386C0.292586 23.8321 0.54478 23.4885 0.873335 23.1195C1.37925 22.5514 2.10072 21.8853 2.99746 21.1491C2.88834 20.9686 2.8259 20.7569 2.82684 20.5306C2.82956 19.8744 3.36414 19.3447 4.02086 19.3474C4.67757 19.3501 5.20775 19.8842 5.20504 20.5404C5.20232 21.1966 4.66773 21.7264 4.01102 21.7236C3.6948 21.7223 3.40797 21.5978 3.1958 21.3957C2.62436 21.8559 2.15003 22.2718 1.78722 22.6333C1.46968 22.9497 1.23157 23.2303 1.08949 23.4667C0.953465 23.693 0.877896 23.9253 0.981577 24.1065C1.08527 24.2876 1.32397 24.3404 1.58816 24.338C1.8641 24.3355 2.2269 24.2728 2.66086 24.1598C3.53094 23.9333 4.71959 23.496 6.13991 22.887C8.98234 21.6682 12.7721 19.7531 16.8366 17.4307C20.9011 15.1083 24.475 12.816 26.9678 10.9863C27.1503 10.8524 27.3271 10.7208 27.4979 10.5918C27.4381 10.4339 27.4057 10.2627 27.4064 10.0838C27.4096 9.29957 28.0485 8.66647 28.8334 8.66972C29.1055 8.67085 29.3594 8.74837 29.5749 8.8818C29.6653 8.79723 29.7504 8.71521 29.8301 8.63578C30.1476 8.31936 30.3858 8.03874 30.5278 7.80236C30.6639 7.57606 30.7394 7.34375 30.6357 7.16256C30.532 6.9814 30.2933 6.92864 30.0292 6.93101C29.7532 6.93349 29.3904 6.99626 28.9564 7.10924C28.0864 7.33577 26.8977 7.77302 25.4774 8.38204C25.3351 8.44305 25.1904 8.50582 25.0434 8.57029C24.9714 8.47536 24.8979 8.38164 24.8231 8.28913C25.2415 8.11097 25.6455 7.9445 26.0339 7.79028C27.5691 7.18066 28.8731 6.75686 29.8472 6.56435ZM21.1264 16.2734C20.926 16.3973 20.7237 16.5216 20.5196 16.646C20.1985 18.8889 18.2697 20.6129 15.9381 20.6129C15.3143 20.6129 14.7194 20.4894 14.1764 20.2657C13.9551 20.3835 13.7352 20.4998 13.5167 20.6143C14.2376 20.9919 15.0578 21.2055 15.928 21.2055C18.7112 21.2055 20.9842 19.0212 21.1264 16.2734ZM20.2776 16.7932C20.2432 16.8141 20.2087 16.835 20.1742 16.8559C19.854 17.541 19.1569 18.016 18.3485 18.016C18.3067 18.016 18.2652 18.0147 18.2241 18.0122C17.9632 18.1637 17.7 18.3153 17.4348 18.4669C16.8022 18.8283 16.1751 19.1795 15.5559 19.5196C15.9071 19.6301 16.281 19.6898 16.6689 19.6898C18.4385 19.6898 19.9174 18.4492 20.2776 16.7932Z" fill="#FFB547"/>
<path d="M19.6274 23.9114C19.7037 24.0959 19.6161 24.3074 19.4317 24.3838C19.2472 24.4602 19.0357 24.3726 18.9593 24.1881L18.0594 22.0156C18.2881 21.9353 18.5109 21.8423 18.7269 21.7376L19.6274 23.9114Z" fill="#FFB547"/>
<path d="M13.2001 21.7589C13.407 21.8573 13.62 21.9448 13.8384 22.0208L12.937 24.1971C12.8641 24.3731 12.6623 24.4567 12.4863 24.3838C12.3103 24.3109 12.2267 24.1091 12.2996 23.9331L13.2001 21.7589Z" fill="#FFB547"/>
<path d="M23.6545 23.1104C23.816 23.272 23.816 23.5339 23.6545 23.6955C23.4929 23.857 23.231 23.857 23.0694 23.6955L20.1595 20.7855C20.3669 20.6033 20.5623 20.4078 20.7446 20.2005L23.6545 23.1104Z" fill="#FFB547"/>
<path d="M9.91262 18.1131C9.99339 18.3417 10.0868 18.5643 10.192 18.78L8.04752 19.6683C7.86305 19.7447 7.65156 19.6571 7.57515 19.4727C7.49874 19.2882 7.58636 19.0767 7.77083 19.0003L9.91262 18.1131Z" fill="#FFB547"/>
<path d="M24.1561 19.022C24.3321 19.0949 24.4157 19.2967 24.3428 19.4727C24.2699 19.6487 24.0681 19.7323 23.8921 19.6594L21.7039 18.753C21.8033 18.5466 21.8919 18.334 21.9691 18.1161L24.1561 19.022Z" fill="#FFB547"/>
<path d="M15.928 10.5893C18.0873 10.5893 19.9511 11.8543 20.819 13.6835C20.7612 13.7207 20.7032 13.758 20.645 13.7954C19.815 12.0226 18.0149 10.7945 15.928 10.7945C13.0531 10.7945 10.7226 13.1251 10.7226 16C10.7226 17.1122 11.0715 18.143 11.6657 18.9889C11.6042 19.0207 11.5429 19.0524 11.4818 19.0839C10.8738 18.209 10.5174 17.1461 10.5174 16C10.5174 13.0118 12.9398 10.5893 15.928 10.5893Z" fill="#FFB547"/>
<path d="M15.9381 11.3558C17.8234 11.3558 19.4453 12.4831 20.1669 14.1003C20.084 14.1528 20.0007 14.2055 19.9169 14.2582C19.292 13.11 18.0718 12.3303 16.6689 12.3303C14.6295 12.3303 12.9763 13.9778 12.9763 16.01C12.9763 16.7371 13.188 17.4149 13.5532 17.9857C13.0934 18.236 12.641 18.4781 12.1977 18.7112C11.6392 17.9464 11.3095 17.0039 11.3095 15.9844C11.3095 13.4281 13.3818 11.3558 15.9381 11.3558Z" fill="#FFB547"/>
<path d="M9.56096 15.5863C9.55295 15.7173 9.54888 15.8494 9.54888 15.9824C9.54888 16.1273 9.55372 16.2711 9.56322 16.4137H5.48958C5.26111 16.4136 5.07587 16.2284 5.07587 16C5.07587 15.7715 5.26111 15.5863 5.48958 15.5863H9.56096Z" fill="#FFB547"/>
<path d="M26.4284 15.5863C26.6568 15.5863 26.8421 15.7715 26.8421 16C26.8421 16.2284 26.6568 16.4136 26.4284 16.4137H22.3195C22.329 16.2711 22.3339 16.1273 22.3339 15.9824C22.3339 15.8494 22.3298 15.7173 22.3218 15.5863H26.4284Z" fill="#FFB547"/>
<path d="M18.3485 14.0041C18.8274 14.0041 19.2672 14.1707 19.6128 14.449C18.5913 15.0875 17.5055 15.7419 16.3734 16.399C16.3486 16.2732 16.3355 16.1431 16.3355 16.01C16.3355 14.9022 17.2368 14.0041 18.3485 14.0041Z" fill="#FFB547"/>
<path d="M7.57515 12.5273C7.64805 12.3513 7.84984 12.2677 8.02584 12.3406L10.1706 13.229C10.0718 13.4356 9.98381 13.6484 9.9073 13.8666L7.76183 12.978C7.58584 12.9051 7.50226 12.7033 7.57515 12.5273Z" fill="#FFB547"/>
<path d="M23.0694 8.30447C23.231 8.14292 23.4929 8.14292 23.6545 8.30447C23.816 8.46602 23.816 8.72795 23.6545 8.8895L20.761 11.7829C20.5795 11.5749 20.3849 11.3786 20.1783 11.1956L23.0694 8.30447Z" fill="#FFB547"/>
<path d="M8.26346 8.30447C8.42502 8.14292 8.68696 8.14292 8.84852 8.30447L11.7232 11.1791C11.5159 11.3614 11.3204 11.5568 11.1381 11.7642L8.26346 8.8895C8.10192 8.72795 8.10192 8.46603 8.26346 8.30447Z" fill="#FFB547"/>
<path d="M18.981 7.80281C19.0539 7.62682 19.2557 7.54326 19.4317 7.61616C19.6077 7.68906 19.6912 7.89082 19.6184 8.06682L18.7241 10.2257C18.5179 10.1259 18.3056 10.0368 18.0878 9.95915L18.981 7.80281Z" fill="#FFB547"/>
<path d="M12.4863 7.61616C12.6708 7.53975 12.8822 7.62734 12.9587 7.81181L13.8413 9.94282C13.6124 10.0224 13.3893 10.1147 13.173 10.2188L12.2906 8.08853C12.2142 7.90406 12.3018 7.69257 12.4863 7.61616Z" fill="#FFB547"/>
<path d="M15.959 5.11688C16.1874 5.11689 16.3727 5.30209 16.3727 5.53056V9.6042C16.2301 9.59471 16.0863 9.58986 15.9414 9.58986C15.8084 9.58986 15.6763 9.59396 15.5453 9.60197V5.53056C15.5453 5.3021 15.7305 5.11689 15.959 5.11688Z" fill="#FFB547"/>
</svg>
