<svg width="250" height="250" viewBox="0 0 250 250" fill="none" xmlns="http://www.w3.org/2000/svg">
<path d="M127.618 199.611C127.618 201.239 126.298 202.559 124.67 202.559C123.041 202.559 121.721 201.239 121.721 199.611V170.344C122.655 170.402 123.596 170.431 124.544 170.431C125.577 170.431 126.602 170.396 127.618 170.329V199.611Z" fill="#FFB547"/>
<path fill-rule="evenodd" clip-rule="evenodd" d="M223.644 57.7567C227.1 57.0738 230.124 56.7676 232.536 56.9793C234.873 57.1844 237.231 57.9391 238.402 59.984C239.572 62.0288 239.027 64.4427 238.018 66.559C236.978 68.7436 235.18 71.1924 232.838 73.8217C231.013 75.8712 228.794 78.0994 226.219 80.4811C226.409 81.2633 226.509 82.0809 226.505 82.9221C226.482 88.5108 221.929 93.0228 216.336 92.9997C214.913 92.9938 213.56 92.6942 212.333 92.1599C212.064 92.3703 211.793 92.5816 211.52 92.7933C198.764 102.699 182.116 114.139 162.995 126.019C162.454 146.844 145.404 163.559 124.449 163.559C117.644 163.559 111.251 161.796 105.702 158.702C98.3783 162.522 91.2806 166.081 84.4918 169.347L73.9967 179.842C72.8454 180.994 70.9786 180.994 69.8273 179.842C68.8954 178.91 68.7177 177.51 69.2945 176.399C63.7249 178.882 58.4511 181.112 53.531 183.066C42.5902 187.411 33.297 190.431 26.3555 191.803C22.9001 192.486 19.8764 192.792 17.4643 192.58C15.1275 192.375 12.7688 191.62 11.5985 189.576C10.4282 187.531 10.9737 185.117 11.9819 183C13.0226 180.816 14.8199 178.367 17.1613 175.738C20.7667 171.689 25.9083 166.942 32.299 161.695C31.5213 160.409 31.0764 158.9 31.083 157.288C31.1024 152.611 34.9122 148.836 39.5923 148.855C44.2723 148.875 48.0507 152.681 48.0314 157.358C48.012 162.034 44.2022 165.809 39.5221 165.79C37.2686 165.781 35.2245 164.893 33.7125 163.453C29.6401 166.732 26.2598 169.696 23.6742 172.272C21.4112 174.527 19.7143 176.527 18.7018 178.212C17.7324 179.825 17.1939 181.48 17.9327 182.771C18.6717 184.062 20.3728 184.438 22.2556 184.421C24.2221 184.404 26.8076 183.957 29.9002 183.151C36.1009 181.537 44.5718 178.421 54.6938 174.081C74.9504 165.395 101.958 151.747 130.924 135.196C159.89 118.645 185.359 102.309 203.124 89.2699C204.425 88.3153 205.685 87.3776 206.902 86.4586C206.476 85.3334 206.245 84.1129 206.25 82.8381C206.273 77.2494 210.826 72.7376 216.42 72.7607C218.359 72.7688 220.168 73.3212 221.704 74.2721C222.348 73.6694 222.954 73.0849 223.522 72.5189C225.785 70.2639 227.482 68.264 228.495 66.5794C229.464 64.9667 230.003 63.3111 229.264 62.0199C228.525 60.7289 226.824 60.3529 224.941 60.3698C222.975 60.3874 220.389 60.8348 217.296 61.6399C211.096 63.2543 202.625 66.3704 192.503 70.7106C191.489 71.1454 190.458 71.5927 189.41 72.0522C188.897 71.3756 188.373 70.7077 187.84 70.0485C190.821 68.7788 193.701 67.5924 196.469 66.4934C207.41 62.1489 216.703 59.1287 223.644 57.7567ZM161.496 126.949C160.067 127.832 158.625 128.717 157.171 129.604C154.883 145.588 141.137 157.874 124.521 157.874C120.075 157.874 115.836 156.994 111.966 155.4C110.389 156.24 108.822 157.068 107.264 157.884C112.402 160.575 118.248 162.097 124.449 162.097C144.284 162.097 160.482 146.531 161.496 126.949ZM155.446 130.653C155.201 130.802 154.955 130.951 154.709 131.1C152.427 135.983 147.46 139.367 141.699 139.367C141.401 139.367 141.105 139.358 140.812 139.34C138.952 140.42 137.077 141.5 135.187 142.58C130.679 145.156 126.21 147.659 121.797 150.083C124.3 150.87 126.964 151.295 129.729 151.295C142.34 151.295 152.879 142.455 155.446 130.653Z" fill="#FFB547"/>
<path d="M150.812 181.381C151.357 182.696 150.732 184.203 149.418 184.748C148.103 185.292 146.596 184.668 146.051 183.353L139.638 167.87C141.268 167.298 142.856 166.636 144.395 165.889L150.812 181.381Z" fill="#FFB547"/>
<path d="M105.009 166.041C106.483 166.742 108.001 167.366 109.557 167.908L103.133 183.417C102.614 184.672 101.176 185.267 99.9214 184.748C98.6671 184.228 98.0715 182.79 98.591 181.536L105.009 166.041Z" fill="#FFB547"/>
<path d="M179.512 175.673C180.663 176.824 180.663 178.691 179.512 179.842C178.361 180.994 176.494 180.994 175.343 179.842L154.605 159.104C156.083 157.806 157.475 156.413 158.774 154.935L179.512 175.673Z" fill="#FFB547"/>
<path d="M81.5801 140.06C82.1557 141.688 82.8214 143.275 83.5711 144.812L68.2884 151.143C66.9738 151.687 65.4666 151.063 64.922 149.748C64.3775 148.434 65.0019 146.927 66.3165 146.382L81.5801 140.06Z" fill="#FFB547"/>
<path d="M183.087 146.536C184.341 147.056 184.937 148.494 184.417 149.748C183.898 151.003 182.46 151.598 181.205 151.079L165.611 144.619C166.319 143.148 166.951 141.634 167.501 140.08L183.087 146.536Z" fill="#FFB547"/>
<path d="M124.449 86.441C139.837 86.441 153.119 95.4554 159.305 108.491C158.893 108.757 158.48 109.023 158.065 109.289C152.149 96.6548 139.321 87.9029 124.449 87.9029C103.961 87.9029 87.3521 104.512 87.3521 125C87.3521 132.927 89.8387 140.272 94.0736 146.3C93.6354 146.527 93.1985 146.753 92.763 146.978C88.4302 140.743 85.8902 133.168 85.8902 125C85.8902 103.704 103.154 86.441 124.449 86.441Z" fill="#FFB547"/>
<path d="M124.521 91.9034C137.956 91.9034 149.515 99.9367 154.658 111.462C154.067 111.836 153.473 112.211 152.876 112.587C148.422 104.404 139.727 98.8477 129.729 98.8477C115.195 98.8477 103.414 110.589 103.414 125.072C103.414 130.253 104.922 135.084 107.525 139.151C104.248 140.935 101.024 142.66 97.8646 144.322C93.8844 138.871 91.5353 132.154 91.5353 124.889C91.5353 106.671 106.303 91.9034 124.521 91.9034Z" fill="#FFB547"/>
<path d="M79.0739 122.052C79.0169 122.985 78.9879 123.927 78.9879 124.875C78.9879 125.907 79.0224 126.932 79.0901 127.948H50.0591C48.431 127.948 47.1109 126.628 47.1108 125C47.1108 123.372 48.4309 122.052 50.0591 122.052H79.0739Z" fill="#FFB547"/>
<path d="M199.28 122.052C200.908 122.052 202.228 123.372 202.228 125C202.228 126.628 200.908 127.948 199.28 127.948H169.998C170.066 126.932 170.101 125.907 170.101 124.875C170.101 123.927 170.071 122.985 170.014 122.052H199.28Z" fill="#FFB547"/>
<path d="M141.699 110.776C145.111 110.776 148.246 111.964 150.709 113.947C143.429 118.497 135.691 123.161 127.623 127.844C127.446 126.947 127.353 126.02 127.353 125.072C127.353 117.176 133.776 110.776 141.699 110.776Z" fill="#FFB547"/>
<path d="M64.922 100.252C65.4416 98.9976 66.8796 98.4019 68.1339 98.9215L83.4185 105.252C82.7146 106.725 82.0874 108.242 81.5422 109.797L66.2524 103.464C64.9982 102.944 64.4026 101.506 64.922 100.252Z" fill="#FFB547"/>
<path d="M175.343 70.1578C176.494 69.0065 178.361 69.0065 179.512 70.1578C180.663 71.3091 180.663 73.1757 179.512 74.327L158.891 94.9472C157.598 93.4644 156.211 92.0658 154.738 90.7615L175.343 70.1578Z" fill="#FFB547"/>
<path d="M69.8273 70.1578C70.9786 69.0065 72.8454 69.0065 73.9967 70.1578L94.4833 90.6442C93.0056 91.9429 91.6125 93.3357 90.3137 94.8134L69.8273 74.327C68.6761 73.1757 68.6761 71.3091 69.8273 70.1578Z" fill="#FFB547"/>
<path d="M146.206 66.5827C146.726 65.3284 148.164 64.733 149.418 65.2525C150.672 65.772 151.268 67.2099 150.748 68.4641L144.375 83.8497C142.906 83.1381 141.393 82.5031 139.841 81.9499L146.206 66.5827Z" fill="#FFB547"/>
<path d="M99.9214 65.2525C101.236 64.708 102.743 65.3322 103.288 66.6468L109.578 81.8335C107.946 82.4008 106.357 83.0583 104.815 83.8L98.5271 68.6189C97.9826 67.3042 98.6068 65.797 99.9214 65.2525Z" fill="#FFB547"/>
<path d="M124.67 47.4413C126.298 47.4413 127.618 48.7612 127.618 50.3894V79.4203C126.602 79.3527 125.577 79.3181 124.544 79.3181C123.596 79.3181 122.655 79.3473 121.721 79.4044V50.3894C121.721 48.7612 123.041 47.4414 124.67 47.4413Z" fill="#FFB547"/>
</svg>
